<?xml version="1.0" standalone="no"?>
<!DOCTYPE svg PUBLIC "-//W3C//DTD SVG 20010904//EN"
 "http://www.w3.org/TR/2001/REC-SVG-20010904/DTD/svg10.dtd">
<svg version="1.0" xmlns="http://www.w3.org/2000/svg"
 width="170.000000pt" height="170.000000pt" viewBox="0 0 170.000000 170.000000"
 preserveAspectRatio="xMidYMid meet">
<metadata>
Created by potrace 1.11, written by Peter Selinger 2001-2013
</metadata>
<g transform="translate(0.000000,170.000000) scale(0.100000,-0.100000)"
fill="#000000" stroke="none">
<path d="M750 1684 c-249 -39 -473 -195 -594 -415 -37 -68 -74 -163 -83 -214
-2 -16 -8 -50 -13 -74 -13 -69 -9 -183 6 -221 21 -50 48 -75 128 -120 178 -99
342 -260 444 -435 86 -148 115 -166 262 -160 135 6 214 24 318 72 221 103 390
305 454 541 28 105 30 317 3 412 -117 421 -508 680 -925 614z m-2 -147 c21
-22 22 -32 24 -283 1 -142 -2 -269 -6 -282 -4 -12 -16 -27 -26 -32 -21 -11
-255 -15 -283 -4 -10 3 -29 28 -43 55 -15 30 -40 59 -64 75 -48 32 -57 61 -39
117 18 55 96 171 150 225 73 73 199 149 250 151 8 1 25 -9 37 -22z m56 -759
c15 -24 -3 -52 -35 -56 -35 -4 -53 28 -32 57 17 26 51 25 67 -1z m747 -47 c25
-31 24 -45 -10 -116 -38 -79 -107 -164 -179 -220 -73 -59 -195 -119 -225 -111
-13 3 -37 26 -55 51 -21 30 -48 53 -76 66 -24 10 -47 27 -52 36 -10 25 -12
242 -2 274 5 15 19 31 31 36 13 6 128 10 285 9 l264 -1 19 -24z"/>
<path d="M14 484 c-4 -14 -4 -56 -1 -95 11 -143 106 -278 243 -345 60 -30 86
-37 156 -41 70 -5 87 -3 101 11 9 10 17 21 17 26 0 17 -101 158 -158 221 -104
112 -284 249 -329 249 -16 0 -25 -8 -29 -26z"/>
</g>
</svg>
